<svg width="1827" height="301" viewBox="0 0 1827 301" fill="none" xmlns="http://www.w3.org/2000/svg">
<path d="M235.619 208.459C236.134 220.263 233.823 232.024 228.86 242.865C223.897 253.706 216.41 263.348 206.956 271.071C187.824 286.588 162.529 294.584 131 294.584H0.154297V0.5H122.759C184.957 0.5 225.372 32.4156 225.372 84.1174C225.858 95.2985 223.51 106.427 218.524 116.576C213.538 126.725 206.058 135.6 196.709 142.46C209.056 148.938 219.241 158.551 226.117 170.213C232.992 181.875 236.283 195.122 235.619 208.459ZM79.6935 67.7192V113.932H120.538C123.852 114.175 127.182 113.75 130.309 112.686C133.437 111.621 136.29 109.942 138.68 107.758C141.071 105.575 142.944 102.936 144.177 100.018C145.41 97.0988 145.974 93.9659 145.833 90.8258C145.94 87.6941 145.353 84.5759 144.108 81.6721C142.863 78.7682 140.989 76.1433 138.606 73.9663C136.223 71.7893 133.384 70.1087 130.272 69.0327C127.16 67.9567 123.844 67.5093 120.538 67.7192H79.6935ZM129.137 227.365C136.092 227.365 142.763 224.752 147.682 220.101C152.6 215.45 155.363 209.142 155.363 202.564C155.363 195.987 152.6 189.679 147.682 185.027C142.763 180.376 136.092 177.764 129.137 177.764H79.6935V227.365H129.137Z" fill="#F10F43"/>
<path d="M334.699 215.164C342.295 232.375 358.704 240.778 384.859 240.778C399.845 241.061 414.353 235.783 425.273 226.074L478.586 261.377C457.089 287.398 424.843 300.475 383.067 300.475C345.304 300.475 315.065 289.972 292.422 269.373C281.236 259.137 272.417 246.818 266.522 233.196C260.626 219.573 257.782 204.943 258.17 190.228C257.783 175.551 260.535 160.951 266.261 147.305C271.986 133.658 280.568 121.246 291.49 110.812C302.537 100.244 315.778 91.9522 330.38 86.4595C344.981 80.9668 360.627 78.3916 376.332 78.896C391.622 78.3845 406.856 80.8988 421.059 86.2781C435.262 91.6574 448.12 99.7829 458.809 110.134C469.554 120.567 477.966 132.94 483.543 146.515C489.12 160.089 491.748 174.587 491.269 189.144C491.393 197.909 490.333 206.653 488.116 215.164H334.699ZM419.111 166.85C417.151 157.981 411.829 150.095 404.147 144.678C396.466 139.262 386.955 136.688 377.407 137.442C354.691 137.442 340.073 147.132 333.839 166.85H419.111Z" fill="#F10F43"/>
<path d="M668.145 151.358H621.998V212.343C621.998 230.774 634.824 233.349 668.145 231.655V294.673C624.243 299.687 593.192 295.893 574.991 283.289C556.79 270.686 547.881 247.556 548.263 213.902V151.358H514.942V84.5453H548.263V46.7345L621.998 25.7285V84.5453H668.145V151.358Z" fill="#F10F43"/>
<path d="M943.968 208.459C944.467 220.261 942.149 232.017 937.187 242.856C932.225 253.695 924.746 263.339 915.305 271.071C896.172 286.588 870.878 294.584 839.348 294.584H708.503V0.5H831.323C893.521 0.5 933.936 32.4156 933.936 84.1174C934.421 95.2985 932.073 106.427 927.087 116.576C922.101 126.725 914.622 135.599 905.273 142.46C917.579 148.965 927.721 158.59 934.558 170.25C941.394 181.91 944.653 195.143 943.968 208.459ZM788.329 67.7192V113.932H829.245C832.559 114.175 835.889 113.75 839.016 112.686C842.144 111.621 844.997 109.942 847.387 107.758C849.778 105.575 851.651 102.936 852.884 100.018C854.117 97.0988 854.681 93.9659 854.54 90.8258C854.636 87.6969 854.041 84.5835 852.792 81.6845C851.544 78.7855 849.669 76.1648 847.289 73.9901C844.908 71.8153 842.073 70.1342 838.966 69.0544C835.859 67.9747 832.548 67.5199 829.245 67.7192H788.329ZM837.7 227.365C844.656 227.365 851.327 224.752 856.245 220.101C861.164 215.45 863.927 209.142 863.927 202.564C863.927 195.987 861.164 189.678 856.245 185.027C851.327 180.376 844.656 177.764 837.7 177.764H788.329V227.365H837.7Z" fill="#F8EA00"/>
<path d="M1001.28 268.481C990.059 258.298 981.189 246.025 975.232 232.439C969.275 218.852 966.361 204.245 966.672 189.539C966.364 174.894 969.282 160.349 975.24 146.829C981.199 133.308 990.067 121.108 1001.28 111.004C1012.25 100.529 1025.34 92.26 1039.77 86.6938C1054.21 81.1275 1069.68 78.3791 1085.26 78.614C1100.86 78.2958 1116.36 81.0061 1130.81 86.5772C1145.25 92.1483 1158.33 100.462 1169.25 111.004C1180.49 121.096 1189.38 133.291 1195.37 146.812C1201.35 160.333 1204.29 174.884 1204 189.539C1204.06 204.225 1201.02 218.774 1195.07 232.337C1189.11 245.9 1180.36 258.205 1169.32 268.532C1158.28 278.86 1145.17 287.003 1130.76 292.485C1116.35 297.968 1100.94 300.681 1085.41 300.464C1069.83 300.79 1054.34 298.124 1039.88 292.626C1025.42 287.129 1012.29 278.915 1001.28 268.481ZM1130.26 189.539C1130.26 178.343 1125.56 167.605 1117.19 159.688C1108.82 151.772 1097.46 147.324 1085.62 147.324C1073.78 147.324 1062.43 151.772 1054.06 159.688C1045.68 167.605 1040.98 178.343 1040.98 189.539C1040.98 200.735 1045.68 211.473 1054.06 219.39C1062.43 227.307 1073.78 231.755 1085.62 231.755C1097.46 231.755 1108.82 227.307 1117.19 219.39C1125.56 211.473 1130.26 200.735 1130.26 189.539Z" fill="#F8EA00"/>
<path d="M1260.35 268.481C1249.1 258.313 1240.19 246.048 1234.19 232.461C1228.2 218.873 1225.25 204.259 1225.53 189.539C1225.23 174.89 1228.17 160.343 1234.14 146.822C1240.11 133.302 1248.99 121.104 1260.21 111.004C1271.17 100.523 1284.26 92.2493 1298.7 86.6826C1313.13 81.1159 1328.61 78.3711 1344.19 78.6138C1359.78 78.2969 1375.27 81.008 1389.7 86.5793C1404.13 92.1506 1417.2 100.464 1428.1 111.004C1439.34 121.094 1448.23 133.29 1454.2 146.813C1460.17 160.335 1463.1 174.887 1462.79 189.539C1463.1 204.251 1460.18 218.865 1454.21 232.454C1448.24 246.043 1439.35 258.311 1428.1 268.481C1417.18 278.964 1404.1 287.212 1389.66 292.714C1375.23 298.216 1359.75 300.854 1344.19 300.464C1328.66 300.761 1313.22 298.08 1298.81 292.584C1284.4 287.087 1271.32 278.888 1260.35 268.481ZM1389.34 189.539C1389.34 178.343 1384.63 167.605 1376.26 159.688C1367.89 151.771 1356.53 147.324 1344.69 147.324C1332.85 147.324 1321.5 151.771 1313.13 159.688C1304.76 167.605 1300.05 178.343 1300.05 189.539C1300.05 200.735 1304.76 211.473 1313.13 219.39C1321.5 227.307 1332.85 231.754 1344.69 231.754C1356.53 231.754 1367.89 227.307 1376.26 219.39C1384.63 211.473 1389.34 200.735 1389.34 189.539Z" fill="#F8EA00"/>
<path d="M1826.69 166.028V294.774H1752.46V173.956C1752.46 154.237 1743.14 144.548 1724.94 144.548C1704.95 144.548 1694.27 158.1 1694.27 179.851V294.571H1620.54V173.956C1620.54 154.237 1611.22 144.548 1592.59 144.548C1572.6 144.548 1561.92 158.1 1561.92 179.851V294.571H1488.18V84.511H1562.28V104.23C1576.04 87.0182 1596.03 78.6158 1622.25 78.6158C1648.48 78.6158 1666.68 87.4248 1679.08 105.72C1686.82 96.733 1696.7 89.5961 1707.9 84.8874C1719.11 80.1786 1731.33 78.0301 1743.57 78.6158C1794.66 78.6158 1826.69 111.819 1826.69 166.028Z" fill="#F8EA00"/>
</svg>
